# Blender v3.1.2 OBJ File: ''
# www.blender.org
mtllib bossWave.mtl
o 円
v 0.000000 0.000000 1.000000
v 0.195090 0.000000 0.980785
v 0.382683 0.000000 0.923880
v 0.555570 0.000000 0.831470
v 0.707107 0.000000 0.707107
v 0.831470 0.000000 0.555570
v 0.923880 0.000000 0.382683
v 0.980785 0.000000 0.195090
v 1.000000 0.000000 -0.000000
v 0.980785 0.000000 -0.195090
v 0.923880 0.000000 -0.382683
v 0.831470 0.000000 -0.555570
v 0.707107 0.000000 -0.707107
v 0.555570 0.000000 -0.831470
v 0.382683 0.000000 -0.923880
v 0.195090 0.000000 -0.980785
v -0.000000 0.000000 -1.000000
v -0.195090 0.000000 -0.980785
v -0.382683 0.000000 -0.923880
v -0.555570 0.000000 -0.831470
v -0.707107 0.000000 -0.707107
v -0.831469 0.000000 -0.555570
v -0.923880 0.000000 -0.382684
v -0.980785 0.000000 -0.195090
v -1.000000 0.000000 0.000000
v -0.980785 0.000000 0.195090
v -0.923879 0.000000 0.382684
v -0.831470 0.000000 0.555570
v -0.707107 0.000000 0.707107
v -0.555570 0.000000 0.831470
v -0.382683 0.000000 0.923880
v -0.195090 0.000000 0.980785
v 0.000000 0.114294 1.000000
v 0.195090 0.114294 0.980785
v 0.382683 0.114294 0.923880
v 0.555570 0.114294 0.831470
v 0.707107 0.114294 0.707107
v 0.831470 0.114294 0.555570
v 0.923880 0.114294 0.382683
v 0.980785 0.114294 0.195090
v 1.000000 0.114294 -0.000000
v 0.980785 0.114294 -0.195090
v 0.923880 0.114294 -0.382683
v 0.831470 0.114294 -0.555570
v 0.707107 0.114294 -0.707107
v 0.555570 0.114294 -0.831470
v 0.382683 0.114294 -0.923880
v 0.195090 0.114294 -0.980785
v -0.000000 0.114294 -1.000000
v -0.195090 0.114294 -0.980785
v -0.382683 0.114294 -0.923880
v -0.555570 0.114294 -0.831470
v -0.707107 0.114294 -0.707107
v -0.831469 0.114294 -0.555570
v -0.923880 0.114294 -0.382684
v -0.980785 0.114294 -0.195090
v -1.000000 0.114294 0.000000
v -0.980785 0.114294 0.195090
v -0.923879 0.114294 0.382684
v -0.831470 0.114294 0.555570
v -0.707107 0.114294 0.707107
v -0.555570 0.114294 0.831470
v -0.382683 0.114294 0.923880
v -0.195090 0.114294 0.980785
v 0.000000 0.000000 1.024105
v 0.199793 0.000000 1.004427
v 0.391908 0.000000 0.946149
v 0.568962 0.000000 0.851512
v 0.724151 0.000000 0.724151
v 0.851512 0.000000 0.568962
v 0.946149 0.000000 0.391908
v 1.004427 0.000000 0.199793
v 1.024105 0.000000 -0.000000
v 1.004427 0.000000 -0.199793
v 0.946149 0.000000 -0.391908
v 0.851512 0.000000 -0.568962
v 0.724151 0.000000 -0.724151
v 0.568962 0.000000 -0.851512
v 0.391908 0.000000 -0.946149
v 0.199793 0.000000 -1.004427
v -0.000000 0.000000 -1.024105
v -0.199793 0.000000 -1.004427
v -0.391908 0.000000 -0.946149
v -0.568962 0.000000 -0.851512
v -0.724151 0.000000 -0.724151
v -0.851512 0.000000 -0.568962
v -0.946149 0.000000 -0.391908
v -1.004427 0.000000 -0.199793
v -1.024105 0.000000 0.000000
v -1.004427 0.000000 0.199793
v -0.946149 0.000000 0.391908
v -0.851512 0.000000 0.568962
v -0.724151 0.000000 0.724151
v -0.568962 0.000000 0.851512
v -0.391908 0.000000 0.946149
v -0.199793 0.000000 1.004427
v 0.000000 0.117049 1.024105
v 0.199793 0.117049 1.004427
v 0.391908 0.117049 0.946149
v 0.568962 0.117049 0.851512
v 0.724151 0.117049 0.724151
v 0.851512 0.117049 0.568962
v 0.946149 0.117049 0.391908
v 1.004427 0.117049 0.199793
v 1.024105 0.117049 -0.000000
v 1.004427 0.117049 -0.199793
v 0.946149 0.117049 -0.391908
v 0.851512 0.117049 -0.568962
v 0.724151 0.117049 -0.724151
v 0.568962 0.117049 -0.851512
v 0.391908 0.117049 -0.946149
v 0.199793 0.117049 -1.004427
v -0.000000 0.117049 -1.024105
v -0.199793 0.117049 -1.004427
v -0.391908 0.117049 -0.946149
v -0.568962 0.117049 -0.851512
v -0.724151 0.117049 -0.724151
v -0.851512 0.117049 -0.568962
v -0.946149 0.117049 -0.391908
v -1.004427 0.117049 -0.199793
v -1.024105 0.117049 0.000000
v -1.004427 0.117049 0.199793
v -0.946149 0.117049 0.391908
v -0.851512 0.117049 0.568962
v -0.724151 0.117049 0.724151
v -0.568962 0.117049 0.851512
v -0.391908 0.117049 0.946149
v -0.199793 0.117049 1.004427
vt 0.000000 0.000000
vt 0.000000 0.000000
vt 0.000000 0.000000
vt 0.000000 0.000000
vt 0.000000 0.000000
vt 0.000000 0.000000
vt 0.000000 0.000000
vt 0.000000 0.000000
vt 0.000000 0.000000
vt 0.000000 0.000000
vt 0.000000 0.000000
vt 0.000000 0.000000
vt 0.000000 0.000000
vt 0.000000 0.000000
vt 0.000000 0.000000
vt 0.000000 0.000000
vt 0.000000 0.000000
vt 0.000000 0.000000
vt 0.000000 0.000000
vt 0.000000 0.000000
vt 0.000000 0.000000
vt 0.000000 0.000000
vt 0.000000 0.000000
vt 0.000000 0.000000
vt 0.000000 0.000000
vt 0.000000 0.000000
vt 0.000000 0.000000
vt 0.000000 0.000000
vt 0.000000 0.000000
vt 0.000000 0.000000
vt 0.000000 0.000000
vt 0.000000 0.000000
vt 0.000000 0.000000
vt 0.000000 0.000000
vt 0.000000 0.000000
vt 0.000000 0.000000
vt 0.000000 0.000000
vt 0.000000 0.000000
vt 0.000000 0.000000
vt 0.000000 0.000000
vt 0.000000 0.000000
vt 0.000000 0.000000
vt 0.000000 0.000000
vt 0.000000 0.000000
vt 0.000000 0.000000
vt 0.000000 0.000000
vt 0.000000 0.000000
vt 0.000000 0.000000
vt 0.000000 0.000000
vt 0.000000 0.000000
vt 0.000000 0.000000
vt 0.000000 0.000000
vt 0.000000 0.000000
vt 0.000000 0.000000
vt 0.000000 0.000000
vt 0.000000 0.000000
vt 0.000000 0.000000
vt 0.000000 0.000000
vt 0.000000 0.000000
vt 0.000000 0.000000
vt 0.000000 0.000000
vt 0.000000 0.000000
vt 0.000000 0.000000
vt 0.000000 0.000000
vt 0.000000 0.000000
vt 0.000000 0.000000
vt 0.000000 0.000000
vt 0.000000 0.000000
vt 0.000000 0.000000
vt 0.000000 0.000000
vt 0.000000 0.000000
vt 0.000000 0.000000
vt 0.000000 0.000000
vt 0.000000 0.000000
vt 0.000000 0.000000
vt 0.000000 0.000000
vt 0.000000 0.000000
vt 0.000000 0.000000
vt 0.000000 0.000000
vt 0.000000 0.000000
vt 0.000000 0.000000
vt 0.000000 0.000000
vt 0.000000 0.000000
vt 0.000000 0.000000
vt 0.000000 0.000000
vt 0.000000 0.000000
vt 0.000000 0.000000
vt 0.000000 0.000000
vt 0.000000 0.000000
vt 0.000000 0.000000
vt 0.000000 0.000000
vt 0.000000 0.000000
vt 0.000000 0.000000
vt 0.000000 0.000000
vt 0.000000 0.000000
vt 0.000000 0.000000
vt 0.000000 0.000000
vt 0.000000 0.000000
vt 0.000000 0.000000
vt 0.000000 0.000000
vt 0.000000 0.000000
vt 0.000000 0.000000
vt 0.000000 0.000000
vt 0.000000 0.000000
vt 0.000000 0.000000
vt 0.000000 0.000000
vt 0.000000 0.000000
vt 0.000000 0.000000
vt 0.000000 0.000000
vt 0.000000 0.000000
vt 0.000000 0.000000
vt 0.000000 0.000000
vt 0.000000 0.000000
vt 0.000000 0.000000
vt 0.000000 0.000000
vt 0.000000 0.000000
vt 0.000000 0.000000
vt 0.000000 0.000000
vt 0.000000 0.000000
vt 0.000000 0.000000
vt 0.000000 0.000000
vt 0.000000 0.000000
vt 0.000000 0.000000
vt 0.000000 0.000000
vt 0.000000 0.000000
vt 0.000000 0.000000
vt 0.000000 0.000000
vt 0.000000 0.000000
vn 0.4714 0.0000 0.8819
vn -0.8819 0.0000 -0.4714
vn 0.6344 0.0000 0.7730
vn -0.9569 0.0000 -0.2903
vn 0.7730 0.0000 0.6344
vn -0.9952 0.0000 -0.0980
vn 0.8819 0.0000 0.4714
vn -0.9952 0.0000 0.0980
vn 0.9569 0.0000 0.2903
vn -0.9569 0.0000 0.2903
vn 0.9952 0.0000 0.0980
vn -0.8819 0.0000 0.4714
vn 0.9952 0.0000 -0.0980
vn -0.7730 0.0000 0.6344
vn 0.9569 0.0000 -0.2903
vn -0.6344 0.0000 0.7730
vn 0.8819 0.0000 -0.4714
vn -0.4714 0.0000 0.8819
vn -0.0980 0.0000 -0.9952
vn 0.7730 0.0000 -0.6344
vn -0.2903 0.0000 0.9569
vn -0.2903 0.0000 -0.9569
vn 0.6344 0.0000 -0.7730
vn -0.0980 0.0000 0.9952
vn -0.4714 0.0000 -0.8819
vn 0.4714 0.0000 -0.8819
vn 0.0980 0.0000 0.9952
vn -0.6344 0.0000 -0.7730
vn 0.2903 0.0000 -0.9569
vn 0.2903 0.0000 0.9569
vn -0.7730 0.0000 -0.6344
vn 0.0980 0.0000 -0.9952
vn 0.0112 0.9935 0.1135
vn 0.0000 -1.0000 0.0000
vn 0.0331 0.9935 0.1092
vn 0.0538 0.9935 0.1006
vn 0.0724 0.9935 0.0882
vn 0.0882 0.9935 0.0724
vn 0.1006 0.9935 0.0538
vn 0.1092 0.9935 0.0331
vn 0.1135 0.9935 0.0112
vn 0.1135 0.9935 -0.0112
vn 0.1092 0.9935 -0.0331
vn 0.1006 0.9935 -0.0538
vn -0.0112 0.9935 -0.1135
vn 0.0882 0.9935 -0.0724
vn -0.0331 0.9935 -0.1092
vn 0.0724 0.9935 -0.0882
vn -0.0538 0.9935 -0.1006
vn 0.0538 0.9935 -0.1006
vn -0.0724 0.9935 -0.0882
vn 0.0331 0.9935 -0.1092
vn -0.0882 0.9935 -0.0724
vn 0.0112 0.9935 -0.1135
vn -0.1006 0.9935 -0.0538
vn -0.1092 0.9935 -0.0331
vn -0.1135 0.9935 -0.0112
vn -0.1135 0.9935 0.0112
vn -0.1092 0.9935 0.0331
vn -0.1006 0.9935 0.0538
vn -0.0882 0.9935 0.0724
vn -0.0724 0.9935 0.0882
vn -0.0538 0.9935 0.1006
vn -0.0331 0.9935 0.1092
vn -0.0112 0.9935 0.1135
usemtl マテリアル
s off
f 19/1/1 52/2/1 20/3/1
f 6/4/2 39/5/2 7/6/2
f 20/3/3 53/7/3 21/8/3
f 7/6/4 40/9/4 8/10/4
f 21/8/5 54/11/5 22/12/5
f 8/10/6 41/13/6 9/14/6
f 22/12/7 55/15/7 23/16/7
f 9/14/8 42/17/8 10/18/8
f 23/16/9 56/19/9 24/20/9
f 10/18/10 43/21/10 11/22/10
f 24/20/11 57/23/11 25/24/11
f 11/22/12 44/25/12 12/26/12
f 25/24/13 58/27/13 26/28/13
f 12/26/14 45/29/14 13/30/14
f 26/28/15 59/31/15 27/32/15
f 13/30/16 46/33/16 14/34/16
f 27/32/17 60/35/17 28/36/17
f 14/34/18 47/37/18 15/38/18
f 1/39/19 34/40/19 2/41/19
f 28/36/20 61/42/20 29/43/20
f 15/38/21 48/44/21 16/45/21
f 2/41/22 35/46/22 3/47/22
f 29/43/23 62/48/23 30/49/23
f 16/45/24 49/50/24 17/51/24
f 3/47/25 36/52/25 4/53/25
f 30/49/26 63/54/26 31/55/26
f 17/51/27 50/56/27 18/57/27
f 4/53/28 37/58/28 5/59/28
f 31/55/29 64/60/29 32/61/29
f 18/57/30 51/62/30 19/1/30
f 5/59/31 38/63/31 6/4/31
f 32/61/32 33/64/32 1/39/32
f 116/65/25 83/66/25 84/67/25
f 103/68/7 70/69/7 71/70/7
f 117/71/28 84/67/28 85/72/28
f 104/73/9 71/70/9 72/74/9
f 118/75/31 85/72/31 86/76/31
f 105/77/11 72/74/11 73/78/11
f 119/79/2 86/76/2 87/80/2
f 106/81/13 73/78/13 74/82/13
f 120/83/4 87/80/4 88/84/4
f 107/85/15 74/82/15 75/86/15
f 121/87/6 88/84/6 89/88/6
f 108/89/17 75/86/17 76/90/17
f 122/91/8 89/88/8 90/92/8
f 109/93/20 76/90/20 77/94/20
f 123/95/10 90/92/10 91/96/10
f 110/97/23 77/94/23 78/98/23
f 124/99/12 91/96/12 92/100/12
f 111/101/26 78/98/26 79/102/26
f 98/103/27 65/104/27 66/105/27
f 125/106/14 92/100/14 93/107/14
f 112/108/29 79/102/29 80/109/29
f 99/110/30 66/105/30 67/111/30
f 126/112/16 93/107/16 94/113/16
f 113/114/32 80/109/32 81/115/32
f 100/116/1 67/111/1 68/117/1
f 127/118/18 94/113/18 95/119/18
f 114/120/19 81/115/19 82/121/19
f 101/122/3 68/117/3 69/123/3
f 128/124/21 95/119/21 96/125/21
f 115/126/22 82/121/22 83/66/22
f 102/127/5 69/123/5 70/69/5
f 97/128/24 96/125/24 65/104/24
f 49/50/33 114/120/33 50/56/33
f 24/20/34 87/80/34 23/16/34
f 50/56/35 115/126/35 51/62/35
f 25/24/34 88/84/34 24/20/34
f 51/62/36 116/65/36 52/2/36
f 26/28/34 89/88/34 25/24/34
f 52/2/37 117/71/37 53/7/37
f 27/32/34 90/92/34 26/28/34
f 54/11/38 117/71/38 118/75/38
f 28/36/34 91/96/34 27/32/34
f 1/39/34 66/105/34 65/104/34
f 54/11/39 119/79/39 55/15/39
f 29/43/34 92/100/34 28/36/34
f 3/47/34 66/105/34 2/41/34
f 55/15/40 120/83/40 56/19/40
f 30/49/34 93/107/34 29/43/34
f 4/53/34 67/111/34 3/47/34
f 56/19/41 121/87/41 57/23/41
f 31/55/34 94/113/34 30/49/34
f 4/53/34 69/123/34 68/117/34
f 57/23/42 122/91/42 58/27/42
f 32/61/34 95/119/34 31/55/34
f 5/59/34 70/69/34 69/123/34
f 58/27/43 123/95/43 59/31/43
f 1/39/34 96/125/34 32/61/34
f 7/6/34 70/69/34 6/4/34
f 59/31/44 124/99/44 60/35/44
f 33/64/45 98/103/45 34/40/45
f 8/10/34 71/70/34 7/6/34
f 61/42/46 124/99/46 125/106/46
f 34/40/47 99/110/47 35/46/47
f 9/14/34 72/74/34 8/10/34
f 61/42/48 126/112/48 62/48/48
f 35/46/49 100/116/49 36/52/49
f 9/14/34 74/82/34 73/78/34
f 62/48/50 127/118/50 63/54/50
f 36/52/51 101/122/51 37/58/51
f 10/18/34 75/86/34 74/82/34
f 63/54/52 128/124/52 64/60/52
f 37/58/53 102/127/53 38/63/53
f 11/22/34 76/90/34 75/86/34
f 64/60/54 97/128/54 33/64/54
f 39/5/55 102/127/55 103/68/55
f 12/26/34 77/94/34 76/90/34
f 40/9/56 103/68/56 104/73/56
f 14/34/34 77/94/34 13/30/34
f 40/9/57 105/77/57 41/13/57
f 15/38/34 78/98/34 14/34/34
f 41/13/58 106/81/58 42/17/58
f 15/38/34 80/109/34 79/102/34
f 42/17/59 107/85/59 43/21/59
f 16/45/34 81/115/34 80/109/34
f 43/21/60 108/89/60 44/25/60
f 18/57/34 81/115/34 17/51/34
f 44/25/61 109/93/61 45/29/61
f 18/57/34 83/66/34 82/121/34
f 45/29/62 110/97/62 46/33/62
f 19/1/34 84/67/34 83/66/34
f 46/33/63 111/101/63 47/37/63
f 21/8/34 84/67/34 20/3/34
f 48/44/64 111/101/64 112/108/64
f 22/12/34 85/72/34 21/8/34
f 48/44/65 113/114/65 49/50/65
f 23/16/34 86/76/34 22/12/34
f 19/1/1 51/62/1 52/2/1
f 6/4/2 38/63/2 39/5/2
f 20/3/3 52/2/3 53/7/3
f 7/6/4 39/5/4 40/9/4
f 21/8/5 53/7/5 54/11/5
f 8/10/6 40/9/6 41/13/6
f 22/12/7 54/11/7 55/15/7
f 9/14/8 41/13/8 42/17/8
f 23/16/9 55/15/9 56/19/9
f 10/18/10 42/17/10 43/21/10
f 24/20/11 56/19/11 57/23/11
f 11/22/12 43/21/12 44/25/12
f 25/24/13 57/23/13 58/27/13
f 12/26/14 44/25/14 45/29/14
f 26/28/15 58/27/15 59/31/15
f 13/30/16 45/29/16 46/33/16
f 27/32/17 59/31/17 60/35/17
f 14/34/18 46/33/18 47/37/18
f 1/39/19 33/64/19 34/40/19
f 28/36/20 60/35/20 61/42/20
f 15/38/21 47/37/21 48/44/21
f 2/41/22 34/40/22 35/46/22
f 29/43/23 61/42/23 62/48/23
f 16/45/24 48/44/24 49/50/24
f 3/47/25 35/46/25 36/52/25
f 30/49/26 62/48/26 63/54/26
f 17/51/27 49/50/27 50/56/27
f 4/53/28 36/52/28 37/58/28
f 31/55/29 63/54/29 64/60/29
f 18/57/30 50/56/30 51/62/30
f 5/59/31 37/58/31 38/63/31
f 32/61/32 64/60/32 33/64/32
f 116/65/25 115/126/25 83/66/25
f 103/68/7 102/127/7 70/69/7
f 117/71/28 116/65/28 84/67/28
f 104/73/9 103/68/9 71/70/9
f 118/75/31 117/71/31 85/72/31
f 105/77/11 104/73/11 72/74/11
f 119/79/2 118/75/2 86/76/2
f 106/81/13 105/77/13 73/78/13
f 120/83/4 119/79/4 87/80/4
f 107/85/15 106/81/15 74/82/15
f 121/87/6 120/83/6 88/84/6
f 108/89/17 107/85/17 75/86/17
f 122/91/8 121/87/8 89/88/8
f 109/93/20 108/89/20 76/90/20
f 123/95/10 122/91/10 90/92/10
f 110/97/23 109/93/23 77/94/23
f 124/99/12 123/95/12 91/96/12
f 111/101/26 110/97/26 78/98/26
f 98/103/27 97/128/27 65/104/27
f 125/106/14 124/99/14 92/100/14
f 112/108/29 111/101/29 79/102/29
f 99/110/30 98/103/30 66/105/30
f 126/112/16 125/106/16 93/107/16
f 113/114/32 112/108/32 80/109/32
f 100/116/1 99/110/1 67/111/1
f 127/118/18 126/112/18 94/113/18
f 114/120/19 113/114/19 81/115/19
f 101/122/3 100/116/3 68/117/3
f 128/124/21 127/118/21 95/119/21
f 115/126/22 114/120/22 82/121/22
f 102/127/5 101/122/5 69/123/5
f 97/128/24 128/124/24 96/125/24
f 49/50/33 113/114/33 114/120/33
f 24/20/34 88/84/34 87/80/34
f 50/56/35 114/120/35 115/126/35
f 25/24/34 89/88/34 88/84/34
f 51/62/36 115/126/36 116/65/36
f 26/28/34 90/92/34 89/88/34
f 52/2/37 116/65/37 117/71/37
f 27/32/34 91/96/34 90/92/34
f 54/11/38 53/7/38 117/71/38
f 28/36/34 92/100/34 91/96/34
f 1/39/34 2/41/34 66/105/34
f 54/11/39 118/75/39 119/79/39
f 29/43/34 93/107/34 92/100/34
f 3/47/34 67/111/34 66/105/34
f 55/15/40 119/79/40 120/83/40
f 30/49/34 94/113/34 93/107/34
f 4/53/34 68/117/34 67/111/34
f 56/19/41 120/83/41 121/87/41
f 31/55/34 95/119/34 94/113/34
f 4/53/34 5/59/34 69/123/34
f 57/23/42 121/87/42 122/91/42
f 32/61/34 96/125/34 95/119/34
f 5/59/34 6/4/34 70/69/34
f 58/27/43 122/91/43 123/95/43
f 1/39/34 65/104/34 96/125/34
f 7/6/34 71/70/34 70/69/34
f 59/31/44 123/95/44 124/99/44
f 33/64/45 97/128/45 98/103/45
f 8/10/34 72/74/34 71/70/34
f 61/42/46 60/35/46 124/99/46
f 34/40/47 98/103/47 99/110/47
f 9/14/34 73/78/34 72/74/34
f 61/42/48 125/106/48 126/112/48
f 35/46/49 99/110/49 100/116/49
f 9/14/34 10/18/34 74/82/34
f 62/48/50 126/112/50 127/118/50
f 36/52/51 100/116/51 101/122/51
f 10/18/34 11/22/34 75/86/34
f 63/54/52 127/118/52 128/124/52
f 37/58/53 101/122/53 102/127/53
f 11/22/34 12/26/34 76/90/34
f 64/60/54 128/124/54 97/128/54
f 39/5/55 38/63/55 102/127/55
f 12/26/34 13/30/34 77/94/34
f 40/9/56 39/5/56 103/68/56
f 14/34/34 78/98/34 77/94/34
f 40/9/57 104/73/57 105/77/57
f 15/38/34 79/102/34 78/98/34
f 41/13/58 105/77/58 106/81/58
f 15/38/34 16/45/34 80/109/34
f 42/17/59 106/81/59 107/85/59
f 16/45/34 17/51/34 81/115/34
f 43/21/60 107/85/60 108/89/60
f 18/57/34 82/121/34 81/115/34
f 44/25/61 108/89/61 109/93/61
f 18/57/34 19/1/34 83/66/34
f 45/29/62 109/93/62 110/97/62
f 19/1/34 20/3/34 84/67/34
f 46/33/63 110/97/63 111/101/63
f 21/8/34 85/72/34 84/67/34
f 48/44/64 47/37/64 111/101/64
f 22/12/34 86/76/34 85/72/34
f 48/44/65 112/108/65 113/114/65
f 23/16/34 87/80/34 86/76/34
