# Blender v3.1.2 OBJ File: 'bossHand.blend'
# www.blender.org
mtllib bossHand.mtl
o 円
v -0.639065 0.093507 1.408748
v -0.451887 0.545394 1.408748
v 0.000000 0.732572 1.408748
v 0.451888 0.545394 1.408748
v 0.639066 0.093507 1.408748
v 0.451888 -0.358381 1.408748
v -0.000000 -0.545559 1.408748
v -0.451887 -0.358381 1.408748
v -0.981864 0.093507 1.171812
v -0.694282 0.787790 1.171812
v 0.000000 1.075371 1.171812
v 0.694283 0.787790 1.171812
v 0.981864 0.093507 1.171812
v 0.694283 -0.600776 1.171812
v -0.000000 -0.888357 1.171812
v -0.694282 -0.600776 1.171812
v -1.142664 0.093507 0.518712
v -0.807985 0.901492 0.518712
v 0.000000 1.236171 0.518712
v 0.807985 0.901492 0.518712
v 1.142664 0.093507 0.518712
v 0.807985 -0.448716 0.518712
v -0.000000 -0.783395 0.518712
v -0.807985 -0.448717 0.518712
v -1.142664 0.093507 -0.202219
v -0.807985 0.901492 -0.202219
v 0.000000 1.236171 -0.202219
v 0.807985 0.901492 -0.202219
v 1.142664 0.093507 -0.202219
v 0.807985 -0.448716 -0.202219
v -0.000252 -0.664778 -0.212842
v -0.807985 -0.448717 -0.202219
v 0.403993 1.062371 -0.202219
v 0.000000 1.237542 -0.202219
v -0.403993 1.083040 -0.202219
v 0.571332 0.093507 -0.202219
v -0.000000 0.093507 -0.202219
v -0.571332 0.093507 -0.202219
v 0.865812 0.901492 -0.881250
v 0.964638 0.093507 -0.881250
v 0.461820 1.025088 -0.881250
v 0.550500 0.093507 -0.881250
v 0.403993 1.053368 -0.883281
v 0.000000 1.142719 -0.883281
v 0.522946 0.093507 -0.883281
v -0.000000 0.093507 -0.883281
v -0.029236 1.114439 -0.877434
v -0.431126 1.014454 -0.878371
v -0.029236 0.093507 -0.877434
v -0.504082 0.093507 -0.912398
v -0.928969 0.093507 -0.878679
v -0.870690 0.901492 -0.878679
v -0.464594 1.014454 -0.879617
v -0.536086 0.093507 -0.878679
v -1.142664 0.093507 0.313916
v -0.807985 -0.448717 0.313916
v -1.475378 -0.044307 -0.202219
v -1.140699 -0.852293 -0.202219
v -1.475378 -0.044307 0.313916
v -1.140699 -0.852293 0.313916
v -1.142664 0.093507 -1.137058
v -0.807985 -0.714478 -1.051020
v -1.475378 -0.044307 -1.137058
v -1.140699 -0.852293 -1.137058
v -0.503705 -0.354020 -0.433618
v -0.028860 -0.354020 -0.398653
v -0.430749 1.014609 -0.917984
v -0.028860 1.114593 -0.917046
v 0.000376 -0.354020 -0.404500
v 0.523322 -0.354020 -0.404500
v 0.000376 1.142873 -0.922893
v 0.404369 1.053523 -0.922893
v 0.550876 -0.354020 -0.402469
v 0.462196 1.025243 -0.920862
v 0.965015 -0.354020 -0.402469
v 0.866189 0.901646 -0.920862
v -0.928593 -0.354020 -0.399899
v -0.870314 0.901647 -0.918292
v -0.464218 1.014609 -0.919230
v -0.535710 -0.354020 -0.399899
v -0.484420 -0.534077 -0.744177
v -0.009575 -0.534077 -0.709212
v -0.427793 0.720571 -1.229343
v -0.025904 0.820555 -1.228405
v 0.019662 -0.434409 -0.715060
v 0.542608 -0.434409 -0.715060
v 0.003333 0.848835 -1.234252
v 0.407326 0.759485 -1.234252
v 0.570162 -0.379072 -0.713029
v 0.465153 0.731205 -1.232221
v 0.984300 -0.379072 -0.713029
v 0.869145 0.607609 -1.232221
v -0.909307 -0.445495 -0.710458
v -0.867357 0.607609 -1.229651
v -0.461261 0.720571 -1.230589
v -0.516425 -0.445495 -0.710458
v -0.480678 -0.110984 -1.435248
v -0.664309 0.664090 -1.230120
v -0.712866 -0.445495 -0.710458
v -0.880168 -0.167465 -1.434779
v -0.447942 -0.199565 -1.451485
v -0.009575 -0.149573 -1.433533
v -0.246997 -0.534077 -0.726695
v -0.226848 0.770563 -1.228874
v 0.019662 -0.035765 -1.439381
v 0.483131 -0.080440 -1.439381
v 0.281135 -0.434409 -0.715060
v 0.205329 0.804160 -1.234252
v 0.525822 -0.039244 -1.437350
v 0.777231 -0.379072 -0.713029
v 0.667149 0.669407 -1.232221
v 0.934887 -0.101042 -1.437350
v 0.251396 -0.058102 -1.439381
v -0.228758 -0.174569 -1.442509
v -0.680423 -0.139224 -1.435013
v 0.730354 -0.070143 -1.437350
v -0.277102 0.093507 1.607301
v -0.195941 0.289448 1.607301
v 0.000000 0.370609 1.607301
v 0.195941 0.289448 1.607301
v 0.277102 0.093507 1.607301
v 0.195941 -0.102434 1.607301
v 0.000000 -0.183595 1.607301
v -0.195941 -0.102434 1.607301
vt 0.000000 0.000000
vt 0.000000 0.000000
vt 0.000000 0.000000
vt 0.000000 0.000000
vt 0.000000 0.000000
vt 0.000000 0.000000
vt 0.000000 0.000000
vt 0.000000 0.000000
vt 0.000000 0.000000
vt 0.000000 0.000000
vt 0.000000 0.000000
vt 0.000000 0.000000
vt 0.000000 0.000000
vt 0.000000 0.000000
vt 0.000000 0.000000
vt 0.000000 0.000000
vt 0.000000 0.000000
vt 0.000000 0.000000
vt 0.000000 0.000000
vt 0.000000 0.000000
vt 0.000000 0.000000
vt 0.000000 0.000000
vt 0.000000 0.000000
vt 0.000000 0.000000
vt 0.000000 0.000000
vt 0.000000 0.000000
vt 0.000000 0.000000
vt 0.000000 0.000000
vt 0.000000 0.000000
vt 0.000000 0.000000
vt 0.000000 0.000000
vt 0.000000 0.000000
vt 0.000000 0.000000
vt 0.000000 0.000000
vt 0.000000 0.000000
vt 0.000000 0.000000
vt 0.000000 0.000000
vt 0.000000 0.000000
vt 0.000000 0.000000
vt 0.000000 0.000000
vt 0.000000 0.000000
vt 0.000000 0.000000
vt 0.000000 0.000000
vt 0.000000 0.000000
vt 0.000000 0.000000
vt 0.000000 0.000000
vt 0.000000 0.000000
vt 0.000000 0.000000
vt 0.000000 0.000000
vt 0.000000 0.000000
vt 0.000000 0.000000
vt 0.000000 0.000000
vt 0.000000 0.000000
vt 0.000000 0.000000
vt 0.000000 0.000000
vt 0.000000 0.000000
vt 0.000000 0.000000
vt 0.000000 0.000000
vt 0.000000 0.000000
vt 0.000000 0.000000
vt 0.000000 0.000000
vt 0.000000 0.000000
vt 0.000000 0.000000
vt 0.000000 0.000000
vt 0.000000 0.000000
vt 0.000000 0.000000
vt 0.000000 0.000000
vt 0.000000 0.000000
vt 0.000000 0.000000
vt 0.000000 0.000000
vt 0.000000 0.000000
vt 0.000000 0.000000
vt 0.000000 0.000000
vt 0.000000 0.000000
vt 0.000000 0.000000
vt 0.000000 0.000000
vt 0.000000 0.000000
vt 0.000000 0.000000
vt 0.000000 0.000000
vt 0.000000 0.000000
vt 0.000000 0.000000
vt 0.000000 0.000000
vt 0.000000 0.000000
vt 0.000000 0.000000
vt 0.000000 0.000000
vt 0.000000 0.000000
vt 0.000000 0.000000
vt 0.000000 0.000000
vt 0.000000 0.000000
vt 0.000000 0.000000
vt 0.000000 0.000000
vt 0.000000 0.000000
vt 0.000000 0.000000
vt 0.000000 0.000000
vt 0.000000 0.000000
vt 0.000000 0.000000
vt 0.000000 0.000000
vt 0.000000 0.000000
vt 0.000000 0.000000
vt 0.000000 0.000000
vt 0.000000 0.000000
vt 0.000000 0.000000
vt 0.000000 0.000000
vt 0.000000 0.000000
vt 0.000000 0.000000
vt 0.000000 0.000000
vt 0.000000 0.000000
vt 0.000000 0.000000
vt 0.000000 0.000000
vt 0.000000 0.000000
vt 0.000000 0.000000
vt 0.000000 0.000000
vt 0.000000 0.000000
vt 0.000000 0.000000
vt 0.000000 0.000000
vt 0.000000 0.000000
vt 0.000000 0.000000
vt 0.000000 0.000000
vt 0.000000 0.000000
vt 0.000000 0.000000
vt 0.000000 0.000000
vt 0.000000 0.000000
vt 0.000000 0.000000
vt 0.000000 0.000000
vn 0.4717 -0.1954 0.8599
vn 0.9009 0.3732 0.2218
vn -0.5534 0.2292 0.8007
vn -0.5534 -0.2292 0.8007
vn 0.2292 -0.5534 0.8007
vn 0.5534 0.2292 0.8007
vn -0.2292 0.5534 0.8007
vn -0.2292 -0.5534 0.8007
vn 0.5534 -0.2292 0.8007
vn 0.2292 0.5534 0.8007
vn -0.8510 -0.5252 -0.0000
vn -0.3732 0.9009 0.2218
vn -0.3785 -0.9139 -0.1469
vn 0.9215 -0.3817 0.0716
vn 0.3732 0.9009 0.2218
vn -0.9009 0.3732 0.2218
vn -0.9215 -0.3817 0.0716
vn 0.3785 -0.9139 -0.1469
vn 0.3785 -0.9137 -0.1483
vn 0.9239 0.3827 0.0000
vn -0.3827 0.9239 0.0000
vn -0.3456 -0.9263 -0.1501
vn 0.8510 -0.5252 -0.0000
vn 0.3827 0.9239 0.0000
vn -0.9239 0.3827 0.0000
vn 0.3699 0.9289 -0.0195
vn -0.0000 0.0140 -0.9999
vn 0.0000 0.0000 -1.0000
vn -1.0000 0.0000 0.0000
vn 0.9991 -0.0000 -0.0433
vn 0.0000 -1.0000 0.0000
vn 0.8979 0.3719 -0.2354
vn -0.9827 -0.1697 -0.0744
vn 0.2925 0.9562 0.0065
vn 0.3946 0.9101 -0.1267
vn 0.9854 0.1702 -0.0022
vn -0.9857 0.1667 0.0226
vn -0.3530 0.9230 -0.1530
vn -0.9916 -0.1181 -0.0521
vn -0.4093 0.9107 -0.0556
vn -0.8869 0.3674 -0.2802
vn 0.9835 -0.1663 -0.0711
vn -0.9239 -0.3827 0.0000
vn 0.7716 -0.6361 -0.0000
vn -0.0000 0.0000 1.0000
vn 0.2502 0.0005 -0.9682
vn 0.8510 0.5252 0.0000
vn 0.7567 -0.6239 0.1953
vn -0.9984 -0.0100 -0.0562
vn 0.0000 0.7305 0.6829
vn 0.9945 -0.0761 -0.0719
vn 0.9970 -0.0774 0.0092
vn 1.0000 -0.0000 -0.0008
vn 1.0000 -0.0000 0.0095
vn 0.1589 0.7186 -0.6771
vn 0.2159 0.9764 0.0059
vn -0.9979 0.0080 -0.0643
vn -0.2680 0.9634 0.0012
vn 0.9917 0.0944 0.0875
vn 0.9924 0.1230 0.0099
vn 0.9926 0.1214 0.0099
vn -0.2414 0.9704 0.0015
vn 0.9951 -0.0718 -0.0679
vn -0.0502 0.7296 0.6820
vn 0.0425 0.2814 -0.9586
vn -0.0000 -0.9211 -0.3893
vn -0.0525 0.2203 -0.9740
vn 0.0224 0.2325 -0.9723
vn 0.9997 0.0124 0.0211
vn 0.0000 -0.9968 0.0804
vn -0.0368 -0.8655 0.4995
vn 0.2174 0.7107 -0.6691
vn -0.1763 0.7148 -0.6767
vn 0.9989 -0.0318 0.0346
vn 0.9945 0.0809 -0.0669
vn -0.9980 -0.0342 -0.0531
vn -0.1995 0.7115 -0.6738
vn 0.9946 0.0980 -0.0338
vn -0.0000 -0.9593 0.2825
vn -0.0000 -0.9681 0.2506
vn -0.0000 -0.8874 -0.4610
vn 0.0000 -0.8985 -0.4391
vn 0.0231 0.2391 -0.9707
vn 0.1195 -0.8884 -0.4432
vn 0.0345 -0.8827 -0.4686
vn -0.0489 0.2058 -0.9774
vn -0.0362 0.2477 -0.9682
vn -0.0374 0.2562 -0.9659
vn 0.0000 -0.9336 -0.3584
vn 0.0408 0.2703 -0.9619
vn 0.0000 -0.9198 -0.3923
vn 0.1954 0.4717 0.8599
vn -0.4717 0.1954 0.8599
vn -0.4717 -0.1954 0.8599
vn 0.1954 -0.4717 0.8599
vn 0.4717 0.1954 0.8599
vn -0.1954 0.4717 0.8599
vn -0.1954 -0.4717 0.8599
vn 0.8329 -0.5141 0.2051
vn -0.8329 -0.5141 0.2051
vn 0.2583 -0.9661 -0.0000
vn -0.3827 -0.9239 0.0000
vn -0.2584 -0.9660 0.0000
vn 0.2925 0.9560 0.0249
vn 0.0118 0.0051 -0.9999
vn -0.0118 0.0051 -0.9999
vn 0.9891 0.1210 0.0842
vn -0.9950 -0.0947 0.0305
vn 0.2159 0.9763 -0.0129
vn 0.9900 0.1227 -0.0703
vn -0.9922 0.0821 -0.0940
vn -0.2403 0.9667 -0.0884
vn -0.9980 -0.0500 0.0377
vn -0.9962 -0.0842 0.0215
vn -0.2679 0.9631 0.0248
vn -0.9932 0.0716 0.0921
vn 0.9957 -0.0772 0.0519
vn 0.9220 0.3696 -0.1157
vn 0.3827 -0.9239 0.0000
vn -0.9983 0.0374 -0.0448
vn -0.9982 0.0338 -0.0496
vn -0.9987 0.0499 -0.0093
vn -0.9938 0.0809 0.0764
vn -0.9999 -0.0033 -0.0095
vn -1.0000 0.0004 0.0012
vn -0.9988 0.0305 -0.0383
vn -0.9992 0.0247 -0.0307
vn -0.9977 -0.0678 -0.0097
vn -0.9850 -0.1265 -0.1175
vn -0.9852 -0.1257 -0.1168
vn -0.9991 0.0425 -0.0093
vn 0.0835 0.2730 -0.9584
vn 0.1272 -0.9030 -0.4105
vn 0.0131 0.2344 -0.9721
vn 0.0501 0.2265 -0.9727
vn 1.0000 0.0025 0.0071
vn 0.9980 0.0558 0.0296
vn 0.9984 -0.0357 0.0432
vn 0.9976 -0.0173 0.0670
vn 0.9935 0.1003 0.0536
vn 0.9945 0.1007 -0.0292
vn -1.0000 -0.0025 -0.0072
vn -0.9998 -0.0164 -0.0090
vn 0.9965 0.0651 -0.0520
vn 0.9917 0.1251 0.0292
vn -0.0841 -0.8730 -0.4805
vn -0.0854 -0.8856 -0.4566
vn 0.0517 0.2337 -0.9709
vn 0.0314 -0.9042 -0.4260
vn 0.0148 0.2204 -0.9753
vn -0.0690 0.2399 -0.9683
vn -0.0712 0.2479 -0.9662
vn 0.1290 -0.9155 -0.3812
vn 0.0803 0.2623 -0.9616
vn -0.1360 -0.9001 -0.4140
vn -0.1381 -0.9142 -0.3810
usemtl マテリアル
s off
f 5/1/1 122/2/1 6/3/1
f 21/4/2 12/5/2 13/6/2
f 2/7/3 9/8/3 1/9/3
f 9/8/4 8/10/4 1/9/4
f 15/11/5 6/3/5 7/12/5
f 13/6/6 4/13/6 5/1/6
f 11/14/7 2/7/7 3/15/7
f 16/16/8 7/12/8 8/10/8
f 14/17/9 5/1/9 6/3/9
f 4/13/10 11/14/10 3/15/10
f 55/18/11 24/19/11 17/20/11
f 19/21/12 10/22/12 11/14/12
f 16/16/13 23/23/13 15/11/13
f 22/24/14 13/6/14 14/17/14
f 12/5/15 19/21/15 11/14/15
f 18/25/16 9/8/16 10/22/16
f 9/8/17 24/19/17 16/16/17
f 23/23/18 14/17/18 15/11/18
f 31/26/19 22/24/19 23/23/19
f 29/27/20 20/28/20 21/4/20
f 27/29/21 18/25/21 19/21/21
f 56/30/22 31/26/22 23/23/22
f 30/31/23 21/4/23 22/24/23
f 28/32/24 19/21/24 20/28/24
f 26/33/25 25/34/25 55/18/25
f 28/32/26 41/35/26 33/36/26
f 37/37/27 36/38/27 31/26/27
f 27/29/28 28/32/28 33/36/28
f 44/39/29 37/37/29 34/40/29
f 37/37/30 47/41/30 34/40/30
f 51/42/31 38/43/31 25/34/31
f 40/44/32 28/32/32 29/27/32
f 36/38/31 40/44/31 29/27/31
f 41/35/33 36/38/33 33/36/33
f 39/45/34 74/46/34 41/35/34
f 33/36/35 44/39/35 34/40/35
f 36/38/36 43/47/36 33/36/36
f 37/37/31 45/48/31 36/38/31
f 38/43/31 49/49/31 37/37/31
f 48/50/37 38/43/37 35/51/37
f 47/41/38 35/51/38 34/40/38
f 90/52/39 89/53/39 73/54/39
f 53/55/40 26/33/40 35/51/40
f 26/33/41 51/42/41 25/34/41
f 38/43/42 53/55/42 35/51/42
f 59/56/43 58/57/43 60/58/43
f 63/59/43 58/57/43 57/60/43
f 60/58/44 32/61/44 56/30/44
f 59/56/45 56/30/45 55/18/45
f 57/60/21 55/18/21 25/34/21
f 64/62/46 61/63/46 62/64/46
f 32/61/47 61/63/47 25/34/47
f 58/57/48 62/64/48 32/61/48
f 61/63/21 57/60/21 25/34/21
f 101/65/49 81/66/49 65/67/49
f 69/68/50 45/48/50 46/69/50
f 48/50/51 65/67/51 50/70/51
f 54/71/52 79/72/52 53/55/52
f 44/39/53 69/68/53 46/69/53
f 49/49/54 68/73/54 47/41/54
f 108/74/55 87/75/55 71/76/55
f 43/47/56 71/76/56 44/39/56
f 94/77/57 93/78/57 77/79/57
f 53/55/58 78/80/58 52/81/58
f 41/35/59 73/54/59 42/82/59
f 77/79/50 54/71/50 51/42/50
f 45/48/60 72/83/60 43/47/60
f 40/44/61 76/84/61 39/45/61
f 47/41/62 67/85/62 48/50/62
f 52/81/63 77/79/63 51/42/63
f 73/54/50 40/44/50 42/82/50
f 65/67/64 49/49/64 50/70/64
f 116/86/65 92/87/65 112/88/65
f 115/89/66 96/90/66 99/91/66
f 114/92/67 83/93/67 104/94/67
f 105/95/68 108/74/68 113/96/68
f 84/97/69 66/98/69 102/99/69
f 110/100/70 91/101/70 75/102/70
f 103/103/71 82/104/71 66/98/71
f 111/105/72 90/52/72 74/46/72
f 104/94/73 83/93/73 67/85/73
f 96/90/74 97/106/74 95/107/74
f 91/101/75 92/87/75 76/84/75
f 87/75/76 85/108/76 69/68/76
f 98/109/77 94/77/77 78/80/77
f 86/110/78 106/111/78 88/112/78
f 99/91/79 96/90/79 80/113/79
f 107/114/80 86/110/80 70/115/80
f 85/108/81 113/96/81 107/114/81
f 107/114/82 106/111/82 86/110/82
f 113/96/83 88/112/83 106/111/83
f 103/103/84 101/65/84 114/92/84
f 103/103/85 102/99/85 82/104/85
f 102/99/86 104/94/86 84/97/86
f 98/109/87 97/106/87 115/89/87
f 94/77/88 115/89/88 100/116/88
f 100/116/89 99/91/89 93/78/89
f 109/117/90 111/105/90 116/86/90
f 89/53/91 116/86/91 110/100/91
f 110/100/89 112/88/89 91/101/89
f 121/118/45 120/119/45 119/120/45
f 3/15/92 120/119/92 4/13/92
f 1/9/93 118/121/93 2/7/93
f 8/10/94 117/122/94 1/9/94
f 6/3/95 123/123/95 7/12/95
f 4/13/96 121/118/96 5/1/96
f 2/7/97 119/120/97 3/15/97
f 7/12/98 124/124/98 8/10/98
f 5/1/1 121/118/1 122/2/1
f 21/4/2 20/28/2 12/5/2
f 2/7/3 10/22/3 9/8/3
f 9/8/4 16/16/4 8/10/4
f 15/11/5 14/17/5 6/3/5
f 13/6/6 12/5/6 4/13/6
f 11/14/7 10/22/7 2/7/7
f 16/16/8 15/11/8 7/12/8
f 14/17/9 13/6/9 5/1/9
f 4/13/10 12/5/10 11/14/10
f 55/18/11 56/30/11 24/19/11
f 19/21/12 18/25/12 10/22/12
f 16/16/13 24/19/13 23/23/13
f 22/24/99 21/4/99 13/6/99
f 12/5/15 20/28/15 19/21/15
f 18/25/16 17/20/16 9/8/16
f 9/8/100 17/20/100 24/19/100
f 23/23/18 22/24/18 14/17/18
f 31/26/101 30/31/101 22/24/101
f 29/27/20 28/32/20 20/28/20
f 27/29/21 26/33/21 18/25/21
f 23/23/102 24/19/102 56/30/102
f 56/30/103 32/61/103 31/26/103
f 30/31/23 29/27/23 21/4/23
f 28/32/24 27/29/24 19/21/24
f 17/20/25 18/25/25 55/18/25
f 18/25/25 26/33/25 55/18/25
f 28/32/104 39/45/104 41/35/104
f 36/38/28 29/27/28 30/31/28
f 30/31/105 31/26/105 36/38/105
f 31/26/106 32/61/106 38/43/106
f 37/37/27 31/26/27 38/43/27
f 32/61/28 25/34/28 38/43/28
f 35/51/45 26/33/45 27/29/45
f 34/40/45 35/51/45 27/29/45
f 33/36/45 34/40/45 27/29/45
f 44/39/29 46/69/29 37/37/29
f 37/37/30 49/49/30 47/41/30
f 51/42/31 54/71/31 38/43/31
f 40/44/107 39/45/107 28/32/107
f 36/38/31 42/82/31 40/44/31
f 41/35/108 42/82/108 36/38/108
f 39/45/34 76/84/34 74/46/34
f 33/36/109 43/47/109 44/39/109
f 36/38/110 45/48/110 43/47/110
f 37/37/31 46/69/31 45/48/31
f 38/43/31 50/70/31 49/49/31
f 48/50/111 50/70/111 38/43/111
f 47/41/112 48/50/112 35/51/112
f 73/54/113 74/46/113 90/52/113
f 90/52/114 109/117/114 89/53/114
f 53/55/115 52/81/115 26/33/115
f 26/33/116 52/81/116 51/42/116
f 38/43/117 54/71/117 53/55/117
f 59/56/43 57/60/43 58/57/43
f 63/59/43 64/62/43 58/57/43
f 60/58/44 58/57/44 32/61/44
f 59/56/45 60/58/45 56/30/45
f 57/60/21 59/56/21 55/18/21
f 64/62/28 63/59/28 61/63/28
f 32/61/118 62/64/118 61/63/118
f 58/57/119 64/62/119 62/64/119
f 61/63/21 63/59/21 57/60/21
f 65/67/120 67/85/120 83/93/120
f 83/93/121 101/65/121 65/67/121
f 69/68/50 70/115/50 45/48/50
f 48/50/122 67/85/122 65/67/122
f 54/71/123 80/113/123 79/72/123
f 44/39/124 71/76/124 69/68/124
f 49/49/125 66/98/125 68/73/125
f 71/76/55 72/83/55 108/74/55
f 72/83/55 88/112/55 108/74/55
f 43/47/56 72/83/56 71/76/56
f 77/79/126 78/80/126 94/77/126
f 94/77/127 100/116/127 93/78/127
f 53/55/58 79/72/58 78/80/58
f 41/35/128 74/46/128 73/54/128
f 77/79/50 80/113/50 54/71/50
f 45/48/129 70/115/129 72/83/129
f 40/44/130 75/102/130 76/84/130
f 47/41/62 68/73/62 67/85/62
f 52/81/131 78/80/131 77/79/131
f 73/54/50 75/102/50 40/44/50
f 65/67/64 66/98/64 49/49/64
f 116/86/132 111/105/132 92/87/132
f 115/89/133 97/106/133 96/90/133
f 114/92/134 101/65/134 83/93/134
f 105/95/135 87/75/135 108/74/135
f 68/73/136 66/98/136 84/97/136
f 66/98/137 82/104/137 102/99/137
f 75/102/70 73/54/70 110/100/70
f 73/54/70 89/53/70 110/100/70
f 66/98/71 65/67/71 103/103/71
f 65/67/71 81/66/71 103/103/71
f 74/46/72 76/84/72 111/105/72
f 76/84/72 92/87/72 111/105/72
f 67/85/73 68/73/73 104/94/73
f 68/73/73 84/97/73 104/94/73
f 79/72/138 80/113/138 95/107/138
f 80/113/139 96/90/139 95/107/139
f 76/84/140 75/102/140 91/101/140
f 91/101/141 112/88/141 92/87/141
f 69/68/142 71/76/142 87/75/142
f 87/75/143 105/95/143 85/108/143
f 78/80/77 79/72/77 98/109/77
f 79/72/77 95/107/77 98/109/77
f 72/83/144 70/115/144 88/112/144
f 70/115/145 86/110/145 88/112/145
f 80/113/79 77/79/79 99/91/79
f 77/79/79 93/78/79 99/91/79
f 70/115/80 69/68/80 107/114/80
f 69/68/80 85/108/80 107/114/80
f 85/108/146 105/95/146 113/96/146
f 107/114/147 113/96/147 106/111/147
f 113/96/148 108/74/148 88/112/148
f 103/103/149 81/66/149 101/65/149
f 103/103/84 114/92/84 102/99/84
f 102/99/150 114/92/150 104/94/150
f 98/109/151 95/107/151 97/106/151
f 94/77/152 98/109/152 115/89/152
f 100/116/153 115/89/153 99/91/153
f 109/117/154 90/52/154 111/105/154
f 89/53/155 109/117/155 116/86/155
f 110/100/156 116/86/156 112/88/156
f 119/120/45 118/121/45 117/122/45
f 117/122/45 124/124/45 119/120/45
f 124/124/45 123/123/45 119/120/45
f 123/123/45 122/2/45 119/120/45
f 122/2/45 121/118/45 119/120/45
f 3/15/92 119/120/92 120/119/92
f 1/9/93 117/122/93 118/121/93
f 8/10/94 124/124/94 117/122/94
f 6/3/95 122/2/95 123/123/95
f 4/13/96 120/119/96 121/118/96
f 2/7/97 118/121/97 119/120/97
f 7/12/98 123/123/98 124/124/98
